<?xml version="1.0" encoding="utf-8"?>
<!-- Generator: Adobe Illustrator 19.1.0, SVG Export Plug-In . SVG Version: 6.00 Build 0)  -->
<svg version="1.1" id="Layer_1" xmlns="http://www.w3.org/2000/svg" xmlns:xlink="http://www.w3.org/1999/xlink" x="0px" y="0px"
	 viewBox="0 0 124.6 56.7" style="enable-background:new 0 0 124.6 56.7;" xml:space="preserve">
<style type="text/css">
	.st0{fill:none;stroke:#FBB03B;stroke-width:4;stroke-miterlimit:10;}
	.st1{fill:#4D4D4D;}
	.st2{font-family:'OpenSans-Bold';}
	.st3{font-size:23.519px;}
</style>
<path class="st0" d="M110.8,30.6c0.1,0,5.5,1,5.5-6.6c0-1.4-2.1-5.3-5.1-5.3c-5.7,0-8.2,0.7-9.7,4.8c-1.2,3.1-0.4,12.1,6.2,12.1
	c5.8,0,14,0.8,14-9.9s0-17.1,0-17.1s0.3-6.6-7.8-6.6s-17.2,0-17.2,0s-7,0-7,7.5c0,6.3,0,40.3,0,40.3s-0.8,4.7,5.2,4.7
	c4.9,0,21.8,0,21.8,0s4.9-0.3,4.9-6s0-11.1,0-11.1"/>
<text transform="matrix(1 0 0 1 19.3582 23.3832)"><tspan x="0" y="0" class="st1 st2 st3">INSIDE</tspan><tspan x="28.1" y="24.8" class="st1 st2 st3">OUT</tspan></text>
</svg>
